<svg width="162" height="24" viewBox="0 0 162 24" fill="none" xmlns="http://www.w3.org/2000/svg">
<path fill-rule="evenodd" clip-rule="evenodd" d="M16.278 0.211929H11.3913L0.571289 23.9312H5.45806L16.278 0.211929Z" fill="#FFFF00"/>
<path fill-rule="evenodd" clip-rule="evenodd" d="M122.478 2.40766C123.735 3.50748 124.492 5.11402 124.472 7.42997C124.466 9.05379 124.159 10.4015 123.48 11.5201C122.821 12.6058 121.818 13.4636 120.425 14.1491L125.14 23.2446V0.211945H131.07V10.2087C132.418 8.13645 135.686 3.38891 137.312 1.02555L137.313 1.02491L137.83 0.272777L137.872 0.211945H145.214L137.182 10.7278L145.179 23.9312H138.154L138.113 23.8606L137.334 22.4974L135.619 19.4983C134.995 18.4077 134.372 17.317 133.904 16.4989L133.339 15.5102L133.221 15.3026L131.07 17.6614V23.9284H125.281V23.9312H118.986L114.839 15.6407H111.998V23.9312H106.053V0.205313L106.199 0.212091C107.291 0.262464 108.576 0.228436 109.957 0.191879L109.957 0.191876C110.493 0.177707 111.042 0.163157 111.601 0.152996C113.593 0.116724 115.688 0.136805 117.593 0.435567C119.497 0.734098 121.227 1.3132 122.478 2.40766ZM113.335 11.0256C112.874 11.0133 112.421 11.0011 111.999 11.0096V4.8425C112.407 4.84933 112.845 4.83779 113.289 4.82608C113.558 4.819 113.828 4.81186 114.097 4.80866C114.869 4.79945 115.63 4.82237 116.299 4.96584C116.968 5.10917 117.533 5.37007 117.928 5.82674C118.321 6.28181 118.562 6.9498 118.545 7.94014L118.545 7.94259L118.545 7.94505C118.563 8.93238 118.323 9.59582 117.929 10.0463C117.534 10.4985 116.968 10.7549 116.297 10.8944C115.626 11.0339 114.864 11.0536 114.091 11.0427C113.84 11.0392 113.586 11.0324 113.335 11.0256ZM95.3844 23.979C101.072 24.041 105.735 19.241 105.491 12.5436C106.026 5.45594 101.407 0.0644642 95.3836 0.166953C92.0227 0.224137 89.4276 1.74535 87.6984 4.04218C85.9717 6.33587 85.1112 9.39849 85.2008 12.5444C85.3705 18.5139 89.0363 23.9096 95.3844 23.979ZM91.1294 12.5382C91.1047 10.9708 91.1828 9.02417 91.7671 7.47337C92.0585 6.69984 92.4729 6.03305 93.0556 5.55987C93.6361 5.08846 94.3931 4.80145 95.386 4.80145C96.3596 4.80145 97.1058 5.0939 97.6815 5.57298C98.2596 6.05408 98.6744 6.73075 98.9691 7.51127C99.5595 9.07547 99.6549 11.0229 99.6416 12.5392C99.6283 14.0306 99.431 15.7504 98.7988 17.0906C98.4835 17.759 98.0627 18.3274 97.5078 18.7277C96.9545 19.1269 96.2602 19.3647 95.3866 19.361C94.5087 19.3573 93.8135 19.1217 93.2611 18.7287C92.7075 18.3348 92.2892 17.7769 91.9761 17.1171C91.3483 15.7939 91.1537 14.082 91.1294 12.5382ZM64.3311 0.211945H58.4408L63.473 23.9312H69.523L72.4779 11.0511L75.4936 23.9312H81.5587L86.5767 0.211945H80.7033L78.1271 14.3379L74.9976 0.211945H69.9902L66.9071 14.3353L64.3311 0.211945ZM154.86 18.902C155.281 18.5749 155.544 18.1071 155.536 17.4562L155.534 17.4268C155.498 16.8922 155.381 16.49 155.197 16.1723C155.014 15.8551 154.759 15.6132 154.437 15.4062C154.112 15.198 153.721 15.027 153.267 14.8508C153.089 14.7818 152.899 14.7113 152.7 14.6374L152.699 14.6372L152.698 14.6369L152.698 14.6368C152.399 14.5257 152.079 14.407 151.748 14.2744C149.794 13.6923 147.735 12.8177 146.183 11.5915C144.629 10.3635 143.569 8.77032 143.658 6.75899C143.658 3.99404 145.445 2.03871 148.004 1.03072C150.532 -0.0342517 153.886 -0.0968152 156.597 0.931215C159.315 1.96166 161.41 4.0998 161.351 7.43826L161.348 7.57614H155.538L155.549 7.42549C155.6 6.72971 155.409 6.1727 155.07 5.74474C154.729 5.31463 154.233 5.00711 153.667 4.82616C152.531 4.46355 151.148 4.62024 150.252 5.26477C149.652 5.83569 149.419 6.34013 149.415 6.77792C149.411 7.21676 149.638 7.62578 150.038 8.00521C150.843 8.76896 152.288 9.35285 153.616 9.73747L153.618 9.73801L153.62 9.7386C155.212 10.2479 156.524 10.794 157.555 11.3864C161.846 13.5302 162.761 19.3927 159.024 22.1979L159.023 22.1988C156.531 24.0258 152.453 24.4273 149.041 23.4217C145.625 22.4148 142.82 19.9764 142.965 16.079L142.97 15.9439H148.798V16.0842C148.798 17.283 149.109 18.1401 149.706 18.682L149.707 18.6831L149.709 18.6843C150.01 18.9706 150.53 19.2114 151.155 19.3623C151.777 19.5124 152.486 19.5695 153.15 19.5013C153.817 19.4329 154.426 19.24 154.86 18.902ZM18.614 23.9312L18.6107 23.7909H18.4751V0.204687L18.6225 0.212143C19.5116 0.257103 20.5814 0.236322 21.7401 0.212279L21.8177 0.210667C22.9522 0.187097 24.1669 0.161859 25.367 0.194295C27.8105 0.260339 30.2299 0.565216 31.8036 1.64047C35.665 3.78252 37.3922 8.22725 37.1404 12.5736C37.1603 16.6507 35.385 20.4209 31.8929 22.4522C30.3261 23.564 27.878 23.8843 25.4079 23.9554C24.1669 23.9911 22.9109 23.9639 21.7456 23.9384L21.7342 23.9382C20.6301 23.9141 19.6102 23.8918 18.7558 23.9252V23.9312H18.614ZM29.4837 6.13114C28.4083 5.07317 26.7524 4.65043 24.3979 4.8432V19.3162C27.0956 19.5523 28.7907 18.9456 29.8035 17.6617C30.8414 16.346 31.1943 14.2835 31.1096 11.5595L31.1095 11.5574L31.1095 11.5552C31.1074 8.98391 30.581 7.21069 29.4837 6.13114ZM41.8556 9.73055L42.0597 9.93464V13.9392L42.1952 13.9438C42.486 13.9537 42.8324 13.9472 43.2025 13.9402H43.2025H43.2026H43.2026L43.4122 13.9364C43.8631 13.9285 44.343 13.9241 44.8097 13.9489C45.277 13.9738 45.726 14.0276 46.1154 14.1343C46.5058 14.2412 46.8257 14.3983 47.046 14.622L47.0527 14.6289L47.0604 14.6347C47.2898 14.8113 47.4838 15.1002 47.6248 15.4605C47.7653 15.8193 47.8494 16.2398 47.8654 16.6679C47.8976 17.5318 47.6526 18.3858 47.0892 18.8364L47.0831 18.8412L47.0777 18.8467C46.3466 19.5771 45.1064 19.7464 44.0411 19.42C42.9794 19.0948 42.1448 18.296 42.1677 17.141L42.1705 16.9979H36.5837L36.5804 17.1348C36.494 20.6837 39.059 22.7984 42.1394 23.583C45.2129 24.3659 48.8552 23.8435 51.0182 22.0735C52.881 20.7308 53.6369 18.4482 53.3568 16.3447C53.0913 14.35 51.8911 12.4974 49.7987 11.7491C53.7098 9.91806 54.1214 4.49544 50.832 1.98142C48.8315 0.323471 45.3542 -0.190919 42.3924 0.521458C39.4251 1.23517 36.9123 3.20002 36.9383 6.5541L36.9393 6.69336H42.4955L42.4947 6.55227C42.4896 5.56942 43.2506 4.91656 44.2087 4.67071C45.1695 4.42419 46.257 4.60843 46.8355 5.22957C47.5912 6.09178 47.7013 7.28723 47.2971 8.2344C46.8951 9.17616 45.9881 9.86604 44.6988 9.73131L44.6915 9.73055H41.8556ZM55.0433 19.2926C55.5472 18.7735 56.2973 18.4407 57.2808 18.4575C58.2642 18.441 59.0144 18.7741 59.5185 19.2932C60.0212 19.8108 60.2705 20.5045 60.2705 21.1949C60.2705 21.8854 60.0212 22.579 59.5185 23.0964C59.0144 23.6153 58.2642 23.9481 57.2807 23.9313C56.2979 23.9481 55.5481 23.6152 55.0441 23.0962C54.5415 22.5786 54.2921 21.8849 54.292 21.1944C54.2918 20.5039 54.5408 19.8102 55.0433 19.2926Z" fill="white"/>
</svg>
